<mxfile host="app.diagrams.net" modified="2023-05-22T01:50:05.705Z" agent="Mozilla/5.0 (Macintosh; Intel Mac OS X 10_15_7) AppleWebKit/537.36 (KHTML, like Gecko) Chrome/113.0.0.0 Safari/537.36" etag="T7EVPXB1OkOSfAiO-mZs" version="21.3.2" type="github">
  <diagram name="Page-1" id="5oQk0iP3RECzhw_weiLr">
    <mxGraphModel dx="1804" dy="527" grid="1" gridSize="10" guides="1" tooltips="1" connect="1" arrows="1" fold="1" page="1" pageScale="1" pageWidth="850" pageHeight="1100" math="0" shadow="0">
      <root>
        <mxCell id="0" />
        <mxCell id="1" parent="0" />
        <mxCell id="pcHelcg1O1OIMG8Py_eO-7" value="Contract management system" style="shape=process;whiteSpace=wrap;html=1;backgroundOutline=1;strokeWidth=2;" parent="1" vertex="1">
          <mxGeometry x="90" y="40" width="190" height="125" as="geometry" />
        </mxCell>
        <mxCell id="pcHelcg1O1OIMG8Py_eO-9" value="Payment system" style="shape=document;whiteSpace=wrap;html=1;boundedLbl=1;strokeWidth=2;" parent="1" vertex="1">
          <mxGeometry x="-27.5" y="250" width="115" height="70" as="geometry" />
        </mxCell>
        <mxCell id="pcHelcg1O1OIMG8Py_eO-13" value="Database" style="strokeWidth=2;html=1;shape=mxgraph.flowchart.database;whiteSpace=wrap;" parent="1" vertex="1">
          <mxGeometry x="690" y="75" width="60" height="70" as="geometry" />
        </mxCell>
        <mxCell id="pcHelcg1O1OIMG8Py_eO-14" value="Shopping cart system" style="rounded=1;whiteSpace=wrap;html=1;absoluteArcSize=1;arcSize=14;strokeWidth=2;" parent="1" vertex="1">
          <mxGeometry x="530" y="60" width="100" height="100" as="geometry" />
        </mxCell>
        <mxCell id="pcHelcg1O1OIMG8Py_eO-16" value="Step 1: Cart triggers contract&lt;br&gt;&lt;br&gt;&lt;br&gt;Step 3: Payment auth notification" style="text;html=1;align=left;verticalAlign=middle;resizable=0;points=[];autosize=1;strokeColor=none;fillColor=none;" parent="1" vertex="1">
          <mxGeometry x="310" y="80" width="200" height="70" as="geometry" />
        </mxCell>
        <mxCell id="pcHelcg1O1OIMG8Py_eO-20" value="Order tracking system" style="shape=document;whiteSpace=wrap;html=1;boundedLbl=1;strokeWidth=2;" parent="1" vertex="1">
          <mxGeometry x="350" y="290" width="120" height="80" as="geometry" />
        </mxCell>
        <mxCell id="pcHelcg1O1OIMG8Py_eO-23" value="Step 2: Request Payment auth&lt;br&gt;Step 6: Send disburse auth" style="text;html=1;align=left;verticalAlign=middle;resizable=0;points=[];autosize=1;strokeColor=none;fillColor=none;" parent="1" vertex="1">
          <mxGeometry x="-27.5" y="190" width="190" height="40" as="geometry" />
        </mxCell>
        <mxCell id="pcHelcg1O1OIMG8Py_eO-33" value="" style="endArrow=classic;startArrow=classic;html=1;rounded=0;entryX=0.329;entryY=0.978;entryDx=0;entryDy=0;edgeStyle=orthogonalEdgeStyle;elbow=vertical;entryPerimeter=0;curved=1;exitX=1;exitY=0.25;exitDx=0;exitDy=0;" parent="1" source="pcHelcg1O1OIMG8Py_eO-9" target="pcHelcg1O1OIMG8Py_eO-7" edge="1">
          <mxGeometry width="50" height="50" relative="1" as="geometry">
            <mxPoint x="20" y="250" as="sourcePoint" />
            <mxPoint x="70" y="200" as="targetPoint" />
          </mxGeometry>
        </mxCell>
        <mxCell id="pcHelcg1O1OIMG8Py_eO-36" value="Step 4: Send order confirmation" style="text;html=1;align=left;verticalAlign=middle;resizable=0;points=[];autosize=1;strokeColor=none;fillColor=none;rotation=0;" parent="1" vertex="1">
          <mxGeometry x="500" y="240" width="190" height="30" as="geometry" />
        </mxCell>
        <mxCell id="pcHelcg1O1OIMG8Py_eO-38" value="Step 5: Track order fulfillment" style="text;html=1;align=left;verticalAlign=middle;resizable=0;points=[];autosize=1;strokeColor=none;fillColor=none;" parent="1" vertex="1">
          <mxGeometry x="170" y="240" width="180" height="30" as="geometry" />
        </mxCell>
        <mxCell id="pcHelcg1O1OIMG8Py_eO-75" value="" style="endArrow=classic;startArrow=classic;html=1;rounded=0;entryX=0.558;entryY=1;entryDx=0;entryDy=0;entryPerimeter=0;exitX=0;exitY=0.5;exitDx=0;exitDy=0;edgeStyle=orthogonalEdgeStyle;curved=1;" parent="1" source="pcHelcg1O1OIMG8Py_eO-20" target="pcHelcg1O1OIMG8Py_eO-7" edge="1">
          <mxGeometry width="50" height="50" relative="1" as="geometry">
            <mxPoint x="190" y="290" as="sourcePoint" />
            <mxPoint x="240" y="240" as="targetPoint" />
          </mxGeometry>
        </mxCell>
        <mxCell id="pcHelcg1O1OIMG8Py_eO-76" value="" style="endArrow=classic;html=1;rounded=0;entryX=1;entryY=0.5;entryDx=0;entryDy=0;exitX=0.4;exitY=1.01;exitDx=0;exitDy=0;exitPerimeter=0;edgeStyle=orthogonalEdgeStyle;curved=1;" parent="1" source="pcHelcg1O1OIMG8Py_eO-14" target="pcHelcg1O1OIMG8Py_eO-20" edge="1">
          <mxGeometry width="50" height="50" relative="1" as="geometry">
            <mxPoint x="555" y="290" as="sourcePoint" />
            <mxPoint x="530" y="250" as="targetPoint" />
          </mxGeometry>
        </mxCell>
        <mxCell id="pcHelcg1O1OIMG8Py_eO-78" value="Merchant order systems" style="strokeWidth=2;html=1;shape=mxgraph.flowchart.multi-document;whiteSpace=wrap;" parent="1" vertex="1">
          <mxGeometry x="350" y="430" width="120" height="80" as="geometry" />
        </mxCell>
        <mxCell id="plC21Ma35XMabeSKWM4p-1" value="" style="endArrow=classic;startArrow=classic;html=1;rounded=0;exitX=0.989;exitY=0.616;exitDx=0;exitDy=0;exitPerimeter=0;entryX=-0.03;entryY=0.59;entryDx=0;entryDy=0;entryPerimeter=0;" edge="1" parent="1" source="pcHelcg1O1OIMG8Py_eO-7" target="pcHelcg1O1OIMG8Py_eO-14">
          <mxGeometry width="50" height="50" relative="1" as="geometry">
            <mxPoint x="480" y="165" as="sourcePoint" />
            <mxPoint x="530" y="115" as="targetPoint" />
          </mxGeometry>
        </mxCell>
        <mxCell id="plC21Ma35XMabeSKWM4p-4" value="" style="endArrow=classic;startArrow=classic;html=1;rounded=0;entryX=0.5;entryY=0.888;entryDx=0;entryDy=0;entryPerimeter=0;exitX=0.5;exitY=0;exitDx=0;exitDy=0;exitPerimeter=0;" edge="1" parent="1" source="pcHelcg1O1OIMG8Py_eO-78" target="pcHelcg1O1OIMG8Py_eO-20">
          <mxGeometry width="50" height="50" relative="1" as="geometry">
            <mxPoint x="410" y="420" as="sourcePoint" />
            <mxPoint x="410" y="370" as="targetPoint" />
          </mxGeometry>
        </mxCell>
      </root>
    </mxGraphModel>
  </diagram>
</mxfile>
